<?xml version="1.0" standalone="no"?>
<!DOCTYPE svg PUBLIC "-//W3C//DTD SVG 20010904//EN"
 "http://www.w3.org/TR/2001/REC-SVG-20010904/DTD/svg10.dtd">
<svg version="1.0" xmlns="http://www.w3.org/2000/svg"
 width="1893.000000pt" height="1893.000000pt" viewBox="0 0 1893.000000 1893.000000"
 preserveAspectRatio="xMidYMid meet">
<metadata>
Created by potrace 1.14, written by Peter Selinger 2001-2017
</metadata>
<g transform="translate(0.000000,1893.000000) scale(0.100000,-0.100000)"
fill="#000000" stroke="none">
<path d="M3463 11943 c1 -3844 5 -6999 9 -7013 4 -14 9 -56 13 -95 4 -38 8
-72 10 -75 2 -3 7 -33 10 -65 4 -33 10 -64 14 -70 4 -5 8 -23 9 -40 5 -71 98
-378 153 -505 29 -65 145 -297 175 -350 29 -49 143 -222 153 -230 3 -3 11 -12
16 -21 80 -129 360 -429 570 -610 113 -97 312 -252 409 -319 36 -25 76 -53 87
-62 12 -10 26 -15 30 -12 5 3 9 1 9 -5 0 -10 134 -101 149 -101 5 0 11 -4 13
-9 6 -15 515 -317 543 -321 6 -1 17 -7 25 -14 8 -7 38 -24 65 -37 28 -14 73
-38 100 -54 65 -37 719 -365 945 -474 222 -107 982 -486 1077 -537 39 -22 93
-51 120 -65 167 -89 309 -170 478 -272 94 -56 474 -305 485 -317 3 -3 32 -25
65 -50 94 -71 249 -194 257 -204 3 -5 24 6 46 25 216 189 694 508 1087 726
330 183 829 435 1505 761 41 20 77 40 78 44 2 4 10 8 19 8 13 0 645 317 738
370 22 13 65 36 95 52 80 43 129 69 185 102 28 15 75 42 105 59 30 16 62 36
71 43 8 8 18 14 22 14 3 0 61 34 129 76 330 205 607 407 833 607 84 75 292
282 335 333 14 17 48 57 76 90 139 163 275 368 374 564 49 96 94 198 105 240
1 3 9 21 18 41 9 20 32 90 52 155 36 116 40 131 50 175 2 11 6 28 9 37 3 9 8
31 10 48 3 17 12 64 20 105 8 41 17 106 21 144 4 39 10 81 13 95 4 14 8 3169
9 7013 l3 6987 -6000 0 -6000 0 3 -6987z"/>
</g>
</svg>
